<svg xmlns="http://www.w3.org/2000/svg" viewBox="0 0 1024 1024" width="1024" height="1024">
  <defs>
    <clipPath id="sq">
      <path d="M0 367.5C0 238.6 0 174.2 25.1 124.9 47.1 81.5 82.2 46.4 125.6 24.3 174.8-.8 239.3-.8 368.1-.8L655.9-.8C784.7-.8 849.2-.8 898.4 24.3 941.8 46.4 976.9 81.5 999 124.9 1024 174.2 1024 238.6 1024 367.5L1024 656.5C1024 785.4 1024 849.8 999 899.1 976.9 942.5 941.8 977.6 898.4 999.7 849.2 1024.8 784.7 1024.8 655.9 1024.8L368.1 1024.8C239.3 1024.8 174.8 1024.8 125.6 999.7 82.2 977.6 47.1 942.5 25.1 899.1 0 849.8 0 785.4 0 656.5Z" />
    </clipPath>
  </defs>
  <g clip-path="url(#sq)">
    <rect width="1024" height="1024" fill="#f3ebde" />
    <path d="M 320 200 L 470 200 L 470 700 L 760 700 L 760 830 L 320 830 Z" fill="#4d3a2c" />
    <circle cx="690" cy="760" r="48" fill="#b87a47" />
  </g>
</svg>
